<?xml version="1.0" encoding="UTF-8"?>
<svg width="48px" height="18px" viewBox="0 0 48 18" version="1.1" xmlns="http://www.w3.org/2000/svg" xmlns:xlink="http://www.w3.org/1999/xlink">
    <!-- Generator: Sketch 47.1 (45422) - http://www.bohemiancoding.com/sketch -->
    <title>tinted-glass</title>
    <desc>Created with Sketch.</desc>
    <defs></defs>
    <g id="Stage" stroke="none" stroke-width="1" fill="none" fill-rule="evenodd">
        <g id="Artboard" transform="translate(-613.000000, -309.000000)" fill-rule="nonzero" fill="#FFFFFF">
            <path d="M659.548294,313 L660,313 C660.552285,313 661,313.447715 661,314 C661,314.552285 660.552285,315 660,315 L659.528494,315 C659.427072,316.163222 659.201384,317.687668 658.854728,319.602926 C658.079575,323.885616 654.350896,327 649.998621,327 L648.586413,327 C644.502731,326.999999 640.930871,324.250529 639.886001,320.302782 C639.203371,317.723657 638.775109,315.810721 638.602284,314.490994 C638.167017,314.161969 637.644215,314 637,314 C636.409858,314 635.92297,314.135853 635.512907,314.411367 C635.347154,315.733343 634.915467,317.671309 634.218982,320.302782 C633.174112,324.250529 629.602252,326.999999 625.51857,327 L624.106362,327 C619.754087,327 616.025408,323.885616 615.250255,319.602926 C614.9036,317.687668 614.677912,316.163222 614.576489,315 L614,315 C613.447715,315 613,314.552285 613,314 C613,313.447715 613.447715,313 614,313 L614.556689,313 C614.565332,312.933752 614.575312,312.871083 614.586632,312.811959 C615.095337,310.154923 618.959265,309 624.965894,309 C630.408732,309 634.469056,310.085031 635.389575,312.257595 C635.886316,312.086119 636.424884,312 637,312 C637.610219,312 638.179632,312.096938 638.701995,312.289876 C639.59584,310.095778 643.66936,309 649.139089,309 C655.145718,309 659.009646,310.154923 659.518351,312.811959 C659.529671,312.871083 659.539651,312.933752 659.548294,313 Z M632.285557,319.791053 C633.253853,316.13262 633.68412,313.829541 633.580306,313.151302 C633.413084,312.058811 629.875576,311 624.965894,311 C619.927386,311 616.790348,311.937657 616.550954,313.188041 C616.413113,313.908005 616.628683,315.989226 617.218279,319.24672 C617.821175,322.577702 620.721259,325 624.106362,325 L625.518569,325 C628.694767,324.999999 631.47288,322.861522 632.285557,319.791053 Z M641.819427,319.791053 C642.632103,322.861522 645.410217,324.999999 648.586414,325 L649.998621,325 C653.383724,325 656.283808,322.577702 656.886704,319.24672 C657.4763,315.989226 657.69187,313.908005 657.554029,313.188041 C657.314635,311.937657 654.177597,311 649.139089,311 C644.229407,311 640.691899,312.058811 640.524678,313.151302 C640.420863,313.829541 640.85113,316.13262 641.819427,319.791053 Z" id="tinted-glass"></path>
        </g>
    </g>
</svg>